PathFileType	4	(X/Y/Z)	Patient4_TMGait_0pt2_01_right_06.trc.trc
DataRate	CameraRate	NumFrames	NumMarkers	Units	OrigDataRate	OrigDataStartFrame	OrigNumFrames
40.816326530612	40.816326530612	4	33	mm	40.816326530612	18	       141
Frame#	Time	Sacral			L.Shoulder			Chest			R.Shoulder			Neck			R.ASIS			L.ASIS			R.Thigh.Superior			R.Thigh.Lateral			R.Thigh.Inferior			R.Patella			L.Thigh.Superior			L.Thigh.Lateral			L.Thigh.Inferior			L.Patella			L.Shank.Superior			L.Shank.Lateral			L.Shank.Inferior			R.Shank.Superior			R.Shank.Lateral			R.Shank.Inferior			R.Heel			R.Midfoot.Superior			R.Midfoot.Lateral			R.Toe			L.Heel			L.Midfoot.Lateral			L.Midfoot.Superior			L.Toe			L.Elbow			L.Wrist			R.Elbow			R.Wrist			
		X1	Y1	Z1	X2	Y2	Z2	X3	Y3	Z3	X4	Y4	Z4	X5	Y5	Z5	X6	Y6	Z6	X7	Y7	Z7	X8	Y8	Z8	X9	Y9	Z9	X10	Y10	Z10	X11	Y11	Z11	X12	Y12	Z12	X13	Y13	Z13	X14	Y14	Z14	X15	Y15	Z15	X16	Y16	Z16	X17	Y17	Z17	X18	Y18	Z18	X19	Y19	Z19	X20	Y20	Z20	X21	Y21	Z21	X22	Y22	Z22	X23	Y23	Z23	X24	Y24	Z24	X25	Y25	Z25	X26	Y26	Z26	X27	Y27	Z27	X28	Y28	Z28	X29	Y29	Z29	X30	Y30	Z30	X31	Y31	Z31	X32	Y32	Z32	X33	Y33	Z33	

18	11.866500000000	787.059242326369	999.381882892983	395.728382670161	984.281611022431	1441.590469115432	259.582046431347	1046.944711096453	1375.754810422158	439.759790760041	919.775153519023	1440.222828891435	588.675899450569	926.625025061428	1497.751409930194	411.269558511693	990.520264734120	950.609315163123	560.866619926683	1032.806691823208	968.331739691470	290.268664882423	1075.532168358977	772.883425173877	539.456082290572	1022.959762988964	652.789956915573	605.660700955413	1115.200182581182	613.198520045589	532.408418137425	1143.331162291034	521.663853936217	555.669956238918	1064.766430024228	744.540732469387	336.567319736128	984.123108195394	625.957868892629	262.796922329599	1044.466790862657	549.977484139629	346.641502933796	1037.795863753043	481.032069041158	357.896138511997	1006.508550873205	408.688326711502	346.289416760947	918.499155132546	298.228615294439	286.493739469022	946.963185047268	187.950429997336	369.386573025716	1108.332324823857	432.817393714984	568.440817780620	1027.122809677097	336.917388444137	631.208727674111	1079.807863024059	235.830335995805	589.317981615798	950.615020046074	68.208831076196	559.380308452878	1120.720096798481	116.769909274389	613.292888249678	1028.483475166839	54.842743839071	639.658376569430	1235.573757238587	62.684185364704	648.612981580324	805.568442630682	37.794754091392	399.155515971757	885.537156000922	35.670889627851	324.002963502742	966.748774448296	96.223573019427	358.227583526219	1096.564686877144	45.758984212509	338.581591089731	1147.216554067346	1162.917699619265	103.360225426264	1401.350548978951	1120.202503750628	149.301126759898	768.954459366737	1122.584935371810	668.069524436489	754.217759329779	861.304746239759	671.497654422506	
19	11.891000000000	787.624463585366	999.500011998023	396.725726570894	986.363806526141	1441.523373001896	262.608016373958	1047.022950944585	1375.903104794242	443.511353879992	918.286918596449	1440.871789792138	590.868368163775	927.138529419153	1497.894499568876	413.610035026527	988.988203501671	950.458828792733	563.970193383621	1034.369790421021	968.477056798545	293.699552396625	1072.309476526709	771.304220973938	544.518174069403	1016.969017551736	651.382899640530	609.458030988691	1110.082026318582	611.729898405070	537.720727957949	1137.559672831066	522.315872159710	559.658250572521	1062.825023556126	743.742695698619	339.018043712498	980.747484126853	626.630942697558	263.560000591579	1039.238666011380	549.418806474039	347.139477317885	1031.398677831684	480.901003858331	358.031647541139	1000.675548909805	408.976770229788	346.229400365888	912.892147852688	298.378503132663	286.367828353047	941.633963683692	188.102384562755	369.297933505771	1107.141411866420	432.606218419648	571.888614755920	1031.055281500419	332.208545244337	635.406033665453	1088.439637360408	233.472201353407	592.497973762534	966.229678203755	60.614368951827	563.212850345568	1135.598237630141	114.119495507127	615.329469332172	1045.602002392773	48.779800810235	642.420431091827	1253.056146046737	63.346305796096	648.650180661824	800.600494937622	37.773411502552	399.125678303124	880.538268526643	35.629680865505	323.992404267318	961.716437912223	96.201140823023	358.195670591130	1091.576434259750	45.778398769547	338.599812328266	1153.833553167065	1166.785836583271	106.607310682520	1409.295663160523	1134.149569987063	152.805230488953	766.037506945917	1123.704549745087	667.017641837368	752.679810644156	862.255587596938	669.043361837323	
20	11.915500000000	788.675866431929	999.156738578634	398.230895894474	988.031127474702	1441.199445670328	266.061361455354	1047.075083573678	1375.842459274054	447.561754004958	916.922813430584	1441.065789712524	593.571411302367	927.496304218325	1497.692744239169	416.472413770831	988.219387973251	949.899819347294	567.207866371799	1036.289797215629	968.471273660282	297.264314768362	1069.932677100066	769.256798000308	549.454872271611	1011.836474927212	649.462766687561	612.933483819474	1105.857233819502	609.752050655983	542.702804258638	1132.191385119137	522.009626488240	563.248902061628	1061.426813601819	742.813090807404	341.409363862409	977.786278326753	627.185872910125	264.439882883716	1034.500690475824	548.761001599517	347.651796396778	1025.528655335624	480.651619089169	358.195853561866	995.249976495017	409.129066785783	346.240678239024	907.540225089871	298.517494187381	286.294875534138	936.460071248143	188.191299471137	369.223788197692	1105.535115354538	431.700138177203	574.927538571424	1033.555393195364	328.045496489850	638.957552749402	1094.302915717849	231.298735957457	595.043012279366	977.345714862723	55.277106954285	566.157967296032	1146.065622782116	111.686009942788	616.691198693003	1057.689339240224	44.511393594347	644.512953482798	1265.004544020294	63.049471870285	648.569145427891	795.628897753473	37.758721731475	399.090023258048	875.537796697821	35.589104398953	323.979281805466	956.688959929552	96.171664808843	358.162998651799	1086.588063551244	45.789578676567	338.610196902016	1159.604813755386	1170.066003319690	110.282537620239	1415.978605346041	1146.608647573266	156.692931284109	764.908347323916	1123.548521037059	666.881754376516	753.969442300590	861.808781941276	667.897176977957	
21	11.940000000000	790.209391266488	998.443655847394	400.211674511719	989.366519024933	1440.695555451868	269.951664874247	1047.145053472569	1375.628262240656	451.938404803394	915.690584170751	1440.853496828563	596.796589874754	927.727491829378	1497.204336408943	419.867228183763	988.241359698906	949.015904360700	570.598764578815	1038.587204104023	968.356954964627	300.982954913279	1068.503106257295	766.880288878791	554.133242080251	1007.779498038615	647.170899162560	616.012596627533	1102.662733958142	607.394170993485	547.186492388931	1127.479653220015	520.865715924066	566.331117884239	1060.586579008862	741.754639296038	343.775756546075	975.245017527856	627.631100867617	265.490455714919	1030.257780334199	548.014189806007	348.254638653573	1020.195511178456	480.287130797586	358.464345308901	990.227943193560	409.157683889384	346.379775373989	902.442212214618	298.666442289400	286.311636455253	931.437271286249	188.225630155897	369.181301457997	1103.706285594384	430.156718209792	577.472018669061	1034.741540971392	324.379001277866	641.807466947577	1097.536145996643	229.172234808183	596.866566906675	983.976908954544	51.742273289846	568.239126512191	1152.276886461483	109.399664162505	617.291371123033	1064.894968070781	41.717573256243	645.942913500155	1271.824943779349	61.869147295383	648.248016259656	790.654655685609	37.750792101466	399.047606853419	870.539374795768	35.549905555100	323.963769178522	951.672603652772	96.139126065606	358.129042278986	1081.601972819851	45.794086083661	338.612769501094	1164.594575697631	1172.825613790908	114.321603878926	1421.538713741941	1157.566942669633	160.882272919482	765.252803455658	1122.317363286658	667.767190325795	757.564677995194	860.245383882504	668.275771468248	
